<!--?xml version="1.0" standalone="no"?-->
              <svg id="sw-js-blob-svg" viewBox="0 0 100 100" xmlns="http://www.w3.org/2000/svg" version="1.1">
                    <defs> 
                        <linearGradient id="sw-gradient" x1="0" x2="1" y1="1" y2="0">
                            <stop id="stop1" stop-color="rgba(248, 117, 55, 1)" offset="0%"></stop>
                            <stop id="stop2" stop-color="rgba(0, 144, 179, 1)" offset="100%"></stop>
                        </linearGradient>
                    </defs>
                <path fill="url(#sw-gradient)" d="M12.8,-18.2C16.8,-17.4,20.3,-14.1,25.2,-9.7C30.1,-5.2,36.4,0.5,36,5.4C35.7,10.3,28.7,14.5,23.1,19C17.6,23.5,13.6,28.1,8.4,30.5C3.2,32.8,-3.2,32.8,-7.9,30C-12.5,27.1,-15.4,21.5,-15.7,16.3C-16.1,11.1,-13.8,6.4,-15.4,1.7C-16.9,-3.1,-22.1,-7.8,-21.3,-9.8C-20.5,-11.8,-13.6,-11.1,-9,-11.7C-4.4,-12.3,-2.2,-14.3,1.1,-16C4.4,-17.7,8.8,-19.1,12.8,-18.2Z" width="100%" height="100%" transform="translate(50 50)" style="transition: all 0.3s ease 0s;" stroke-width="0" stroke="url(#sw-gradient)"></path>
              </svg>